<svg xmlns="http://www.w3.org/2000/svg" xmlns:xlink="http://www.w3.org/1999/xlink" contentStyleType="text/css" data-diagram-type="CLASS" height="272px" preserveAspectRatio="none" style="width:1040px;height:272px;background:#FFFFFF;" version="1.1" viewBox="0 0 1040 272" width="1040px" zoomAndPan="magnify"><?plantuml 1.2026.6?><defs/><g><!--class AnalyticsController--><g class="entity" data-qualified-name="AnalyticsController" data-source-line="2" id="ent0001"><rect fill="#F1F1F1" height="32" rx="2.5" ry="2.5" style="stroke:#181818;stroke-width:0.5;" width="164.7471" x="10" y="7"/><ellipse cx="25" cy="23" fill="#ADD1B2" rx="11" ry="11" style="stroke:#181818;stroke-width:1;"/><path d="M27.9688,28.6406 Q27.3906,28.9375 26.75,29.0781 Q26.1094,29.2344 25.4063,29.2344 Q22.9063,29.2344 21.5781,27.5938 Q20.2656,25.9375 20.2656,22.8125 Q20.2656,19.6875 21.5781,18.0313 Q22.9063,16.375 25.4063,16.375 Q26.1094,16.375 26.75,16.5313 Q27.4063,16.6875 27.9688,16.9844 L27.9688,19.7031 Q27.3438,19.125 26.75,18.8594 Q26.1563,18.5781 25.5313,18.5781 Q24.1875,18.5781 23.5,19.6563 Q22.8125,20.7188 22.8125,22.8125 Q22.8125,24.9063 23.5,25.9844 Q24.1875,27.0469 25.5313,27.0469 Q26.1563,27.0469 26.75,26.7813 Q27.3438,26.5 27.9688,25.9219 L27.9688,28.6406 Z " fill="#000000"/><text fill="#000000" font-family="sans-serif" font-size="14" lengthAdjust="spacing" textLength="132.7471" x="39" y="27.8467">AnalyticsController</text></g><!--class AnalyticsDashboard--><g class="entity" data-qualified-name="AnalyticsDashboard" data-source-line="9" id="ent0002"><rect fill="#F1F1F1" height="32" rx="2.5" ry="2.5" style="stroke:#181818;stroke-width:0.5;" width="171.7744" x="294.5" y="7"/><ellipse cx="309.5" cy="23" fill="#ADD1B2" rx="11" ry="11" style="stroke:#181818;stroke-width:1;"/><path d="M312.4688,28.6406 Q311.8906,28.9375 311.25,29.0781 Q310.6094,29.2344 309.9063,29.2344 Q307.4063,29.2344 306.0781,27.5938 Q304.7656,25.9375 304.7656,22.8125 Q304.7656,19.6875 306.0781,18.0313 Q307.4063,16.375 309.9063,16.375 Q310.6094,16.375 311.25,16.5313 Q311.9063,16.6875 312.4688,16.9844 L312.4688,19.7031 Q311.8438,19.125 311.25,18.8594 Q310.6563,18.5781 310.0313,18.5781 Q308.6875,18.5781 308,19.6563 Q307.3125,20.7188 307.3125,22.8125 Q307.3125,24.9063 308,25.9844 Q308.6875,27.0469 310.0313,27.0469 Q310.6563,27.0469 311.25,26.7813 Q311.8438,26.5 312.4688,25.9219 L312.4688,28.6406 Z " fill="#000000"/><text fill="#000000" font-family="sans-serif" font-size="14" lengthAdjust="spacing" textLength="139.7744" x="323.5" y="27.8467">AnalyticsDashboard</text></g><!--class AnalyticsDebug--><g class="entity" data-qualified-name="AnalyticsDebug" data-source-line="18" id="ent0003"><rect fill="#F1F1F1" height="32" rx="2.5" ry="2.5" style="stroke:#181818;stroke-width:0.5;" width="141.6143" x="501.5" y="7"/><ellipse cx="516.5" cy="23" fill="#ADD1B2" rx="11" ry="11" style="stroke:#181818;stroke-width:1;"/><path d="M519.4688,28.6406 Q518.8906,28.9375 518.25,29.0781 Q517.6094,29.2344 516.9063,29.2344 Q514.4063,29.2344 513.0781,27.5938 Q511.7656,25.9375 511.7656,22.8125 Q511.7656,19.6875 513.0781,18.0313 Q514.4063,16.375 516.9063,16.375 Q517.6094,16.375 518.25,16.5313 Q518.9063,16.6875 519.4688,16.9844 L519.4688,19.7031 Q518.8438,19.125 518.25,18.8594 Q517.6563,18.5781 517.0313,18.5781 Q515.6875,18.5781 515,19.6563 Q514.3125,20.7188 514.3125,22.8125 Q514.3125,24.9063 515,25.9844 Q515.6875,27.0469 517.0313,27.0469 Q517.6563,27.0469 518.25,26.7813 Q518.8438,26.5 519.4688,25.9219 L519.4688,28.6406 Z " fill="#000000"/><text fill="#000000" font-family="sans-serif" font-size="14" lengthAdjust="spacing" textLength="109.6143" x="530.5" y="27.8467">AnalyticsDebug</text></g><!--class AnalyticsKpis--><g class="entity" data-qualified-name="AnalyticsKpis" data-source-line="31" id="ent0004"><rect fill="#F1F1F1" height="32" rx="2.5" ry="2.5" style="stroke:#181818;stroke-width:0.5;" width="124.8252" x="201" y="116"/><ellipse cx="216" cy="132" fill="#ADD1B2" rx="11" ry="11" style="stroke:#181818;stroke-width:1;"/><path d="M218.9688,137.6406 Q218.3906,137.9375 217.75,138.0781 Q217.1094,138.2344 216.4063,138.2344 Q213.9063,138.2344 212.5781,136.5938 Q211.2656,134.9375 211.2656,131.8125 Q211.2656,128.6875 212.5781,127.0313 Q213.9063,125.375 216.4063,125.375 Q217.1094,125.375 217.75,125.5313 Q218.4063,125.6875 218.9688,125.9844 L218.9688,128.7031 Q218.3438,128.125 217.75,127.8594 Q217.1563,127.5781 216.5313,127.5781 Q215.1875,127.5781 214.5,128.6563 Q213.8125,129.7188 213.8125,131.8125 Q213.8125,133.9063 214.5,134.9844 Q215.1875,136.0469 216.5313,136.0469 Q217.1563,136.0469 217.75,135.7813 Q218.3438,135.5 218.9688,134.9219 L218.9688,137.6406 Z " fill="#000000"/><text fill="#000000" font-family="sans-serif" font-size="14" lengthAdjust="spacing" textLength="92.8252" x="230" y="136.8467">AnalyticsKpis</text></g><!--class AnalyticsRepository--><g class="entity" data-qualified-name="AnalyticsRepository" data-source-line="46" id="ent0005"><rect fill="#F1F1F1" height="32" rx="2.5" ry="2.5" style="stroke:#181818;stroke-width:0.5;" width="170.6465" x="7" y="225"/><ellipse cx="22" cy="241" fill="#ADD1B2" rx="11" ry="11" style="stroke:#181818;stroke-width:1;"/><path d="M24.9688,246.6406 Q24.3906,246.9375 23.75,247.0781 Q23.1094,247.2344 22.4063,247.2344 Q19.9063,247.2344 18.5781,245.5938 Q17.2656,243.9375 17.2656,240.8125 Q17.2656,237.6875 18.5781,236.0313 Q19.9063,234.375 22.4063,234.375 Q23.1094,234.375 23.75,234.5313 Q24.4063,234.6875 24.9688,234.9844 L24.9688,237.7031 Q24.3438,237.125 23.75,236.8594 Q23.1563,236.5781 22.5313,236.5781 Q21.1875,236.5781 20.5,237.6563 Q19.8125,238.7188 19.8125,240.8125 Q19.8125,242.9063 20.5,243.9844 Q21.1875,245.0469 22.5313,245.0469 Q23.1563,245.0469 23.75,244.7813 Q24.3438,244.5 24.9688,243.9219 L24.9688,246.6406 Z " fill="#000000"/><text fill="#000000" font-family="sans-serif" font-size="14" lengthAdjust="spacing" textLength="138.6465" x="36" y="245.8467">AnalyticsRepository</text></g><!--class AnalyticsService--><g class="entity" data-qualified-name="AnalyticsService" data-source-line="59" id="ent0006"><rect fill="#F1F1F1" height="32" rx="2.5" ry="2.5" style="stroke:#181818;stroke-width:0.5;" width="147.3154" x="19" y="116"/><ellipse cx="34" cy="132" fill="#ADD1B2" rx="11" ry="11" style="stroke:#181818;stroke-width:1;"/><path d="M36.9688,137.6406 Q36.3906,137.9375 35.75,138.0781 Q35.1094,138.2344 34.4063,138.2344 Q31.9063,138.2344 30.5781,136.5938 Q29.2656,134.9375 29.2656,131.8125 Q29.2656,128.6875 30.5781,127.0313 Q31.9063,125.375 34.4063,125.375 Q35.1094,125.375 35.75,125.5313 Q36.4063,125.6875 36.9688,125.9844 L36.9688,128.7031 Q36.3438,128.125 35.75,127.8594 Q35.1563,127.5781 34.5313,127.5781 Q33.1875,127.5781 32.5,128.6563 Q31.8125,129.7188 31.8125,131.8125 Q31.8125,133.9063 32.5,134.9844 Q33.1875,136.0469 34.5313,136.0469 Q35.1563,136.0469 35.75,135.7813 Q36.3438,135.5 36.9688,134.9219 L36.9688,137.6406 Z " fill="#000000"/><text fill="#000000" font-family="sans-serif" font-size="14" lengthAdjust="spacing" textLength="115.3154" x="48" y="136.8467">AnalyticsService</text></g><!--class DeveloperSprintAnalytics--><g class="entity" data-qualified-name="DeveloperSprintAnalytics" data-source-line="69" id="ent0007"><rect fill="#F1F1F1" height="32" rx="2.5" ry="2.5" style="stroke:#181818;stroke-width:0.5;" width="209.3584" x="361" y="116"/><ellipse cx="376" cy="132" fill="#ADD1B2" rx="11" ry="11" style="stroke:#181818;stroke-width:1;"/><path d="M378.9688,137.6406 Q378.3906,137.9375 377.75,138.0781 Q377.1094,138.2344 376.4063,138.2344 Q373.9063,138.2344 372.5781,136.5938 Q371.2656,134.9375 371.2656,131.8125 Q371.2656,128.6875 372.5781,127.0313 Q373.9063,125.375 376.4063,125.375 Q377.1094,125.375 377.75,125.5313 Q378.4063,125.6875 378.9688,125.9844 L378.9688,128.7031 Q378.3438,128.125 377.75,127.8594 Q377.1563,127.5781 376.5313,127.5781 Q375.1875,127.5781 374.5,128.6563 Q373.8125,129.7188 373.8125,131.8125 Q373.8125,133.9063 374.5,134.9844 Q375.1875,136.0469 376.5313,136.0469 Q377.1563,136.0469 377.75,135.7813 Q378.3438,135.5 378.9688,134.9219 L378.9688,137.6406 Z " fill="#000000"/><text fill="#000000" font-family="sans-serif" font-size="14" lengthAdjust="spacing" textLength="177.3584" x="390" y="136.8467">DeveloperSprintAnalytics</text></g><!--class SprintVelocity--><g class="entity" data-qualified-name="SprintVelocity" data-source-line="93" id="ent0008"><rect fill="#F1F1F1" height="32" rx="2.5" ry="2.5" style="stroke:#181818;stroke-width:0.5;" width="129.7881" x="689.5" y="116"/><ellipse cx="704.5" cy="132" fill="#ADD1B2" rx="11" ry="11" style="stroke:#181818;stroke-width:1;"/><path d="M707.4688,137.6406 Q706.8906,137.9375 706.25,138.0781 Q705.6094,138.2344 704.9063,138.2344 Q702.4063,138.2344 701.0781,136.5938 Q699.7656,134.9375 699.7656,131.8125 Q699.7656,128.6875 701.0781,127.0313 Q702.4063,125.375 704.9063,125.375 Q705.6094,125.375 706.25,125.5313 Q706.9063,125.6875 707.4688,125.9844 L707.4688,128.7031 Q706.8438,128.125 706.25,127.8594 Q705.6563,127.5781 705.0313,127.5781 Q703.6875,127.5781 703,128.6563 Q702.3125,129.7188 702.3125,131.8125 Q702.3125,133.9063 703,134.9844 Q703.6875,136.0469 705.0313,136.0469 Q705.6563,136.0469 706.25,135.7813 Q706.8438,135.5 707.4688,134.9219 L707.4688,137.6406 Z " fill="#000000"/><text fill="#000000" font-family="sans-serif" font-size="14" lengthAdjust="spacing" textLength="97.7881" x="718.5" y="136.8467">SprintVelocity</text></g><!--class SprintVelocityRow--><g class="entity" data-qualified-name="SprintVelocityRow" data-source-line="116" id="ent0009"><rect fill="#F1F1F1" height="32" rx="2.5" ry="2.5" style="stroke:#181818;stroke-width:0.5;" width="159.5313" x="865.5" y="7"/><ellipse cx="880.5" cy="23" fill="#ADD1B2" rx="11" ry="11" style="stroke:#181818;stroke-width:1;"/><path d="M883.4688,28.6406 Q882.8906,28.9375 882.25,29.0781 Q881.6094,29.2344 880.9063,29.2344 Q878.4063,29.2344 877.0781,27.5938 Q875.7656,25.9375 875.7656,22.8125 Q875.7656,19.6875 877.0781,18.0313 Q878.4063,16.375 880.9063,16.375 Q881.6094,16.375 882.25,16.5313 Q882.9063,16.6875 883.4688,16.9844 L883.4688,19.7031 Q882.8438,19.125 882.25,18.8594 Q881.6563,18.5781 881.0313,18.5781 Q879.6875,18.5781 879,19.6563 Q878.3125,20.7188 878.3125,22.8125 Q878.3125,24.9063 879,25.9844 Q879.6875,27.0469 881.0313,27.0469 Q881.6563,27.0469 882.25,26.7813 Q882.8438,26.5 883.4688,25.9219 L883.4688,28.6406 Z " fill="#000000"/><text fill="#000000" font-family="sans-serif" font-size="14" lengthAdjust="spacing" textLength="127.5313" x="894.5" y="27.8467">SprintVelocityRow</text></g><!--class VelocityAnalytics--><g class="entity" data-qualified-name="VelocityAnalytics" data-source-line="137" id="ent0010"><rect fill="#F1F1F1" height="32" rx="2.5" ry="2.5" style="stroke:#181818;stroke-width:0.5;" width="151.5811" x="678.5" y="7"/><ellipse cx="693.5" cy="23" fill="#ADD1B2" rx="11" ry="11" style="stroke:#181818;stroke-width:1;"/><path d="M696.4688,28.6406 Q695.8906,28.9375 695.25,29.0781 Q694.6094,29.2344 693.9063,29.2344 Q691.4063,29.2344 690.0781,27.5938 Q688.7656,25.9375 688.7656,22.8125 Q688.7656,19.6875 690.0781,18.0313 Q691.4063,16.375 693.9063,16.375 Q694.6094,16.375 695.25,16.5313 Q695.9063,16.6875 696.4688,16.9844 L696.4688,19.7031 Q695.8438,19.125 695.25,18.8594 Q694.6563,18.5781 694.0313,18.5781 Q692.6875,18.5781 692,19.6563 Q691.3125,20.7188 691.3125,22.8125 Q691.3125,24.9063 692,25.9844 Q692.6875,27.0469 694.0313,27.0469 Q694.6563,27.0469 695.25,26.7813 Q695.8438,26.5 696.4688,25.9219 L696.4688,28.6406 Z " fill="#000000"/><text fill="#000000" font-family="sans-serif" font-size="14" lengthAdjust="spacing" textLength="119.5811" x="707.5" y="27.8467">VelocityAnalytics</text></g><!--reverse link AnalyticsController to AnalyticsService--><g class="link" data-entity-1="ent0001" data-entity-2="ent0006" data-link-type="composition" data-source-line="151" id="lnk11"><path codeLine="151" d="M92.5,51.33 C92.5,71.67 92.5,95.37 92.5,115.7" fill="none" id="AnalyticsController-backto-AnalyticsService" style="stroke:#181818;stroke-width:1;"/><polygon fill="#181818" points="92.5,39.33,88.5,45.33,92.5,51.33,96.5,45.33,92.5,39.33" style="stroke:#181818;stroke-width:1;stroke-linejoin:miter;stroke-miterlimit:10;"/><text fill="#000000" font-family="sans-serif" font-size="13" lengthAdjust="spacing" textLength="106.1519" x="93.5" y="82.0669">analyticsService</text></g><!--reverse link AnalyticsDashboard to DeveloperSprintAnalytics--><g class="link" data-entity-1="ent0002" data-entity-2="ent0007" data-link-type="aggregation" data-source-line="152" id="lnk12"><path codeLine="152" d="M400.1448,48.7256 C416.3048,69.0656 437.2,95.37 453.34,115.7" fill="none" id="AnalyticsDashboard-backto-DeveloperSprintAnalytics" style="stroke:#181818;stroke-width:1;"/><polygon fill="none" points="392.68,39.33,393.2805,46.5161,400.1448,48.7256,399.5442,41.5396,392.68,39.33" style="stroke:#181818;stroke-width:1;stroke-linejoin:miter;stroke-miterlimit:10;"/><text fill="#000000" font-family="sans-serif" font-size="13" lengthAdjust="spacing" textLength="64.835" x="429.5" y="82.0669">chartData</text><text fill="#000000" font-family="sans-serif" font-size="13" lengthAdjust="spacing" textLength="8.271" x="387.3665" y="59.0139">1</text><text fill="#000000" font-family="sans-serif" font-size="13" lengthAdjust="spacing" textLength="23.0356" x="422.4492" y="104.9051">0..*</text></g><!--reverse link AnalyticsDashboard to AnalyticsKpis--><g class="link" data-entity-1="ent0002" data-entity-2="ent0004" data-link-type="composition" data-source-line="153" id="lnk13"><path codeLine="153" d="M355.1277,47.2017 C332.8377,67.6017 302.19,95.62 279.93,115.97" fill="none" id="AnalyticsDashboard-backto-AnalyticsKpis" style="stroke:#181818;stroke-width:1;"/><polygon fill="#181818" points="363.98,39.1,356.8533,40.2001,355.1277,47.2017,362.2544,46.1016,363.98,39.1" style="stroke:#181818;stroke-width:1;stroke-linejoin:miter;stroke-miterlimit:10;"/><text fill="#000000" font-family="sans-serif" font-size="13" lengthAdjust="spacing" textLength="26.165" x="330.5" y="82.0669">kpis</text></g><!--reverse link AnalyticsService to AnalyticsRepository--><g class="link" data-entity-1="ent0006" data-entity-2="ent0005" data-link-type="composition" data-source-line="154" id="lnk14"><path codeLine="154" d="M92.5,160.33 C92.5,180.67 92.5,204.37 92.5,224.7" fill="none" id="AnalyticsService-backto-AnalyticsRepository" style="stroke:#181818;stroke-width:1;"/><polygon fill="#181818" points="92.5,148.33,88.5,154.33,92.5,160.33,96.5,154.33,92.5,148.33" style="stroke:#181818;stroke-width:1;stroke-linejoin:miter;stroke-miterlimit:10;"/><text fill="#000000" font-family="sans-serif" font-size="13" lengthAdjust="spacing" textLength="127.8164" x="93.5" y="191.0669">analyticsRepository</text></g><!--reverse link VelocityAnalytics to SprintVelocity--><g class="link" data-entity-1="ent0010" data-entity-2="ent0008" data-link-type="aggregation" data-source-line="155" id="lnk15"><path codeLine="155" d="M754.5,51.33 C754.5,71.67 754.5,95.37 754.5,115.7" fill="none" id="VelocityAnalytics-backto-SprintVelocity" style="stroke:#181818;stroke-width:1;"/><polygon fill="none" points="754.5,39.33,750.5,45.33,754.5,51.33,758.5,45.33,754.5,39.33" style="stroke:#181818;stroke-width:1;stroke-linejoin:miter;stroke-miterlimit:10;"/><text fill="#000000" font-family="sans-serif" font-size="13" lengthAdjust="spacing" textLength="44.0908" x="755.5" y="82.0669">sprints</text><text fill="#000000" font-family="sans-serif" font-size="13" lengthAdjust="spacing" textLength="8.271" x="745.335" y="59.0139">1</text><text fill="#000000" font-family="sans-serif" font-size="13" lengthAdjust="spacing" textLength="23.0356" x="727.7316" y="104.9051">0..*</text></g><?plantuml-src xLZ1Sjem43tNNw7XbAObqrovCS2qj0oXjfjEJXbXBw14jgWaas4o-VVALcpBjkGmRN9gR-1zkthxThMM754i11gdc1ubYSI4fP8pIe6ZH-_TOm9on-8dz266TRP5P-_HgCPEysScQ0joYiLkpJ2FfrZYDhwqjNokWRA8oAE6b_ygD-_9yxoeIRCArMGPxJ2NzSeB8gHfXbyPfWAT8QQCL-ixY2JASMl6AE3KXExK0XCMWmv4qaQS-pqHhTo-gKScHB90Sf8-IwP_MnCfTCsJs12WodEep6IR9f1AKQTG6YL9OAOgHC1YV63yVYuX4PRKpQXlget9qBgGLHd3NcTHkrk4omLlwdROVc4P5olWKpWepvXbQmfDH8Z5VGz2Cebf4SLfBI8eAsLDsgtb2-vL11DbKd2WNgqMBqXjfEjWOgHS88giBTNmOSy4aOmVpPey2ecLLKatdLtF5bUhcNyRhFpvChmTByUBct0-2Mw3xmkJNCVrsI7tdyp36mT-U1Ulen2IFSKIbFshyTTCQ4FIkDXpjldKdcSQV503QGyysAiLPGMsDtVkeO7b6FFPWnqxL9DFPt75bncbgjn5s_aWCYe3aEWZYXZDahHA5rdBE4pmtiso6vIpXsMMw6uf8hgSMsjqyZefUCVBrZu1y0E9mDuxLUN3iVzv5bhxz0_VF2TtmWblAKCiph8qlbJo733De2ACh7jCZPMcHhciIboBT1P13JMTFM1EoRW4sVQGA1nj5fcFW0bJ-maanFNuwmxEdsfy5uZE-Cm4y7bi7KGrAyUaUgs9I66Be-FqfUKqp8SNfgE6QRdxGsdC4YVGZmkREjSpjujiAzxByOVMth6swCr0di3fz3TDFzkioxDkyDOsCTiwAkcrNi-b7T9yB82jjJSPtH1AywFHAfAsnjNoD5ktQIiAwxG6Qf9bmcgN-hngTUuzRhGIjXQbJFhlzrHB8qVnUdTU9M9l3_Rja8QOBambgBCHJsXKzu6dEv9VgGl_zzW_q3sTGqEZUzW1EARKCOGKDNK8UTFhWa70iSErYAwBdMRel4auBiIUP_luS3uSekxvS8Hmwv5d-IGmk1mWflm7doukpWV8VJ0QeUg3WIrEaqDnuHoX_ExlTOWreSPjo61SF_MwZT3ct7hNZT2pz9wt8wfyHLS8_LjBBBpV?></g></svg>