<svg xmlns="http://www.w3.org/2000/svg" xmlns:xlink="http://www.w3.org/1999/xlink" contentStyleType="text/css" data-diagram-type="CLASS" height="490px" preserveAspectRatio="none" style="width:1197px;height:490px;background:#FFFFFF;" version="1.1" viewBox="0 0 1197 490" width="1197px" zoomAndPan="magnify"><?plantuml 1.2026.6?><defs/><g><!--class AiServiceUnavailableException--><g class="entity" data-qualified-name="AiServiceUnavailableException" data-source-line="2" id="ent0001"><rect fill="#F1F1F1" height="32" rx="2.5" ry="2.5" style="stroke:#181818;stroke-width:0.5;" width="248.665" x="7" y="7"/><ellipse cx="22" cy="23" fill="#ADD1B2" rx="11" ry="11" style="stroke:#181818;stroke-width:1;"/><path d="M24.9688,28.6406 Q24.3906,28.9375 23.75,29.0781 Q23.1094,29.2344 22.4063,29.2344 Q19.9063,29.2344 18.5781,27.5938 Q17.2656,25.9375 17.2656,22.8125 Q17.2656,19.6875 18.5781,18.0313 Q19.9063,16.375 22.4063,16.375 Q23.1094,16.375 23.75,16.5313 Q24.4063,16.6875 24.9688,16.9844 L24.9688,19.7031 Q24.3438,19.125 23.75,18.8594 Q23.1563,18.5781 22.5313,18.5781 Q21.1875,18.5781 20.5,19.6563 Q19.8125,20.7188 19.8125,22.8125 Q19.8125,24.9063 20.5,25.9844 Q21.1875,27.0469 22.5313,27.0469 Q23.1563,27.0469 23.75,26.7813 Q24.3438,26.5 24.9688,25.9219 L24.9688,28.6406 Z " fill="#000000"/><text fill="#000000" font-family="sans-serif" font-size="14" lengthAdjust="spacing" textLength="216.665" x="36" y="27.8467">AiServiceUnavailableException</text></g><!--class AlibabaEmbeddingConfig--><g class="entity" data-qualified-name="AlibabaEmbeddingConfig" data-source-line="6" id="ent0002"><rect fill="#F1F1F1" height="32" rx="2.5" ry="2.5" style="stroke:#181818;stroke-width:0.5;" width="208.6133" x="538" y="334"/><ellipse cx="553" cy="350" fill="#ADD1B2" rx="11" ry="11" style="stroke:#181818;stroke-width:1;"/><path d="M555.9688,355.6406 Q555.3906,355.9375 554.75,356.0781 Q554.1094,356.2344 553.4063,356.2344 Q550.9063,356.2344 549.5781,354.5938 Q548.2656,352.9375 548.2656,349.8125 Q548.2656,346.6875 549.5781,345.0313 Q550.9063,343.375 553.4063,343.375 Q554.1094,343.375 554.75,343.5313 Q555.4063,343.6875 555.9688,343.9844 L555.9688,346.7031 Q555.3438,346.125 554.75,345.8594 Q554.1563,345.5781 553.5313,345.5781 Q552.1875,345.5781 551.5,346.6563 Q550.8125,347.7188 550.8125,349.8125 Q550.8125,351.9063 551.5,352.9844 Q552.1875,354.0469 553.5313,354.0469 Q554.1563,354.0469 554.75,353.7813 Q555.3438,353.5 555.9688,352.9219 L555.9688,355.6406 Z " fill="#000000"/><text fill="#000000" font-family="sans-serif" font-size="14" lengthAdjust="spacing" textLength="176.6133" x="567" y="354.8467">AlibabaEmbeddingConfig</text></g><!--class AssignedUserDto--><g class="entity" data-qualified-name="AssignedUserDto" data-source-line="14" id="ent0003"><rect fill="#F1F1F1" height="32" rx="2.5" ry="2.5" style="stroke:#181818;stroke-width:0.5;" width="152.0596" x="999.5" y="443"/><ellipse cx="1014.5" cy="459" fill="#ADD1B2" rx="11" ry="11" style="stroke:#181818;stroke-width:1;"/><path d="M1017.4688,464.6406 Q1016.8906,464.9375 1016.25,465.0781 Q1015.6094,465.2344 1014.9063,465.2344 Q1012.4063,465.2344 1011.0781,463.5938 Q1009.7656,461.9375 1009.7656,458.8125 Q1009.7656,455.6875 1011.0781,454.0313 Q1012.4063,452.375 1014.9063,452.375 Q1015.6094,452.375 1016.25,452.5313 Q1016.9063,452.6875 1017.4688,452.9844 L1017.4688,455.7031 Q1016.8438,455.125 1016.25,454.8594 Q1015.6563,454.5781 1015.0313,454.5781 Q1013.6875,454.5781 1013,455.6563 Q1012.3125,456.7188 1012.3125,458.8125 Q1012.3125,460.9063 1013,461.9844 Q1013.6875,463.0469 1015.0313,463.0469 Q1015.6563,463.0469 1016.25,462.7813 Q1016.8438,462.5 1017.4688,461.9219 L1017.4688,464.6406 Z " fill="#000000"/><text fill="#000000" font-family="sans-serif" font-size="14" lengthAdjust="spacing" textLength="120.0596" x="1028.5" y="463.8467">AssignedUserDto</text></g><!--class CreateWorkItemRequest--><g class="entity" data-qualified-name="CreateWorkItemRequest" data-source-line="29" id="ent0004"><rect fill="#F1F1F1" height="32" rx="2.5" ry="2.5" style="stroke:#181818;stroke-width:0.5;" width="204.4639" x="291.5" y="7"/><ellipse cx="306.5" cy="23" fill="#ADD1B2" rx="11" ry="11" style="stroke:#181818;stroke-width:1;"/><path d="M309.4688,28.6406 Q308.8906,28.9375 308.25,29.0781 Q307.6094,29.2344 306.9063,29.2344 Q304.4063,29.2344 303.0781,27.5938 Q301.7656,25.9375 301.7656,22.8125 Q301.7656,19.6875 303.0781,18.0313 Q304.4063,16.375 306.9063,16.375 Q307.6094,16.375 308.25,16.5313 Q308.9063,16.6875 309.4688,16.9844 L309.4688,19.7031 Q308.8438,19.125 308.25,18.8594 Q307.6563,18.5781 307.0313,18.5781 Q305.6875,18.5781 305,19.6563 Q304.3125,20.7188 304.3125,22.8125 Q304.3125,24.9063 305,25.9844 Q305.6875,27.0469 307.0313,27.0469 Q307.6563,27.0469 308.25,26.7813 Q308.8438,26.5 309.4688,25.9219 L309.4688,28.6406 Z " fill="#000000"/><text fill="#000000" font-family="sans-serif" font-size="14" lengthAdjust="spacing" textLength="172.4639" x="320.5" y="27.8467">CreateWorkItemRequest</text></g><!--class DeepSeekConfig--><g class="entity" data-qualified-name="DeepSeekConfig" data-source-line="46" id="ent0005"><rect fill="#F1F1F1" height="32" rx="2.5" ry="2.5" style="stroke:#181818;stroke-width:0.5;" width="148.0332" x="530.5" y="7"/><ellipse cx="545.5" cy="23" fill="#ADD1B2" rx="11" ry="11" style="stroke:#181818;stroke-width:1;"/><path d="M548.4688,28.6406 Q547.8906,28.9375 547.25,29.0781 Q546.6094,29.2344 545.9063,29.2344 Q543.4063,29.2344 542.0781,27.5938 Q540.7656,25.9375 540.7656,22.8125 Q540.7656,19.6875 542.0781,18.0313 Q543.4063,16.375 545.9063,16.375 Q546.6094,16.375 547.25,16.5313 Q547.9063,16.6875 548.4688,16.9844 L548.4688,19.7031 Q547.8438,19.125 547.25,18.8594 Q546.6563,18.5781 546.0313,18.5781 Q544.6875,18.5781 544,19.6563 Q543.3125,20.7188 543.3125,22.8125 Q543.3125,24.9063 544,25.9844 Q544.6875,27.0469 546.0313,27.0469 Q546.6563,27.0469 547.25,26.7813 Q547.8438,26.5 548.4688,25.9219 L548.4688,28.6406 Z " fill="#000000"/><text fill="#000000" font-family="sans-serif" font-size="14" lengthAdjust="spacing" textLength="116.0332" x="559.5" y="27.8467">DeepSeekConfig</text></g><!--class DeepSeekService--><g class="entity" data-qualified-name="DeepSeekService" data-source-line="53" id="ent0006"><rect fill="#F1F1F1" height="32" rx="2.5" ry="2.5" style="stroke:#181818;stroke-width:0.5;" width="154.8555" x="54" y="116"/><ellipse cx="69" cy="132" fill="#ADD1B2" rx="11" ry="11" style="stroke:#181818;stroke-width:1;"/><path d="M71.9688,137.6406 Q71.3906,137.9375 70.75,138.0781 Q70.1094,138.2344 69.4063,138.2344 Q66.9063,138.2344 65.5781,136.5938 Q64.2656,134.9375 64.2656,131.8125 Q64.2656,128.6875 65.5781,127.0313 Q66.9063,125.375 69.4063,125.375 Q70.1094,125.375 70.75,125.5313 Q71.4063,125.6875 71.9688,125.9844 L71.9688,128.7031 Q71.3438,128.125 70.75,127.8594 Q70.1563,127.5781 69.5313,127.5781 Q68.1875,127.5781 67.5,128.6563 Q66.8125,129.7188 66.8125,131.8125 Q66.8125,133.9063 67.5,134.9844 Q68.1875,136.0469 69.5313,136.0469 Q70.1563,136.0469 70.75,135.7813 Q71.3438,135.5 71.9688,134.9219 L71.9688,137.6406 Z " fill="#000000"/><text fill="#000000" font-family="sans-serif" font-size="14" lengthAdjust="spacing" textLength="122.8555" x="83" y="136.8467">DeepSeekService</text></g><!--class EmbeddingService--><g class="entity" data-qualified-name="EmbeddingService" data-source-line="60" id="ent0007"><rect fill="#F1F1F1" height="32" rx="2.5" ry="2.5" style="stroke:#181818;stroke-width:0.5;" width="163.1475" x="561" y="225"/><ellipse cx="576" cy="241" fill="#ADD1B2" rx="11" ry="11" style="stroke:#181818;stroke-width:1;"/><path d="M578.9688,246.6406 Q578.3906,246.9375 577.75,247.0781 Q577.1094,247.2344 576.4063,247.2344 Q573.9063,247.2344 572.5781,245.5938 Q571.2656,243.9375 571.2656,240.8125 Q571.2656,237.6875 572.5781,236.0313 Q573.9063,234.375 576.4063,234.375 Q577.1094,234.375 577.75,234.5313 Q578.4063,234.6875 578.9688,234.9844 L578.9688,237.7031 Q578.3438,237.125 577.75,236.8594 Q577.1563,236.5781 576.5313,236.5781 Q575.1875,236.5781 574.5,237.6563 Q573.8125,238.7188 573.8125,240.8125 Q573.8125,242.9063 574.5,243.9844 Q575.1875,245.0469 576.5313,245.0469 Q577.1563,245.0469 577.75,244.7813 Q578.3438,244.5 578.9688,243.9219 L578.9688,246.6406 Z " fill="#000000"/><text fill="#000000" font-family="sans-serif" font-size="14" lengthAdjust="spacing" textLength="131.1475" x="590" y="245.8467">EmbeddingService</text></g><!--class SemanticSearchController--><g class="entity" data-qualified-name="SemanticSearchController" data-source-line="71" id="ent0008"><rect fill="#F1F1F1" height="32" rx="2.5" ry="2.5" style="stroke:#181818;stroke-width:0.5;" width="215.2441" x="718" y="7"/><ellipse cx="733" cy="23" fill="#ADD1B2" rx="11" ry="11" style="stroke:#181818;stroke-width:1;"/><path d="M735.9688,28.6406 Q735.3906,28.9375 734.75,29.0781 Q734.1094,29.2344 733.4063,29.2344 Q730.9063,29.2344 729.5781,27.5938 Q728.2656,25.9375 728.2656,22.8125 Q728.2656,19.6875 729.5781,18.0313 Q730.9063,16.375 733.4063,16.375 Q734.1094,16.375 734.75,16.5313 Q735.4063,16.6875 735.9688,16.9844 L735.9688,19.7031 Q735.3438,19.125 734.75,18.8594 Q734.1563,18.5781 733.5313,18.5781 Q732.1875,18.5781 731.5,19.6563 Q730.8125,20.7188 730.8125,22.8125 Q730.8125,24.9063 731.5,25.9844 Q732.1875,27.0469 733.5313,27.0469 Q734.1563,27.0469 734.75,26.7813 Q735.3438,26.5 735.9688,25.9219 L735.9688,28.6406 Z " fill="#000000"/><text fill="#000000" font-family="sans-serif" font-size="14" lengthAdjust="spacing" textLength="183.2441" x="747" y="27.8467">SemanticSearchController</text></g><!--class SemanticSearchRequest--><g class="entity" data-qualified-name="SemanticSearchRequest" data-source-line="78" id="ent0009"><rect fill="#F1F1F1" height="32" rx="2.5" ry="2.5" style="stroke:#181818;stroke-width:0.5;" width="203.5684" x="244.5" y="116"/><ellipse cx="259.5" cy="132" fill="#ADD1B2" rx="11" ry="11" style="stroke:#181818;stroke-width:1;"/><path d="M262.4688,137.6406 Q261.8906,137.9375 261.25,138.0781 Q260.6094,138.2344 259.9063,138.2344 Q257.4063,138.2344 256.0781,136.5938 Q254.7656,134.9375 254.7656,131.8125 Q254.7656,128.6875 256.0781,127.0313 Q257.4063,125.375 259.9063,125.375 Q260.6094,125.375 261.25,125.5313 Q261.9063,125.6875 262.4688,125.9844 L262.4688,128.7031 Q261.8438,128.125 261.25,127.8594 Q260.6563,127.5781 260.0313,127.5781 Q258.6875,127.5781 258,128.6563 Q257.3125,129.7188 257.3125,131.8125 Q257.3125,133.9063 258,134.9844 Q258.6875,136.0469 260.0313,136.0469 Q260.6563,136.0469 261.25,135.7813 Q261.8438,135.5 262.4688,134.9219 L262.4688,137.6406 Z " fill="#000000"/><text fill="#000000" font-family="sans-serif" font-size="14" lengthAdjust="spacing" textLength="171.5684" x="273.5" y="136.8467">SemanticSearchRequest</text></g><!--class SemanticSearchResponse--><g class="entity" data-qualified-name="SemanticSearchResponse" data-source-line="84" id="ent0010"><rect fill="#F1F1F1" height="32" rx="2.5" ry="2.5" style="stroke:#181818;stroke-width:0.5;" width="213.9385" x="968.5" y="116"/><ellipse cx="983.5" cy="132" fill="#ADD1B2" rx="11" ry="11" style="stroke:#181818;stroke-width:1;"/><path d="M986.4688,137.6406 Q985.8906,137.9375 985.25,138.0781 Q984.6094,138.2344 983.9063,138.2344 Q981.4063,138.2344 980.0781,136.5938 Q978.7656,134.9375 978.7656,131.8125 Q978.7656,128.6875 980.0781,127.0313 Q981.4063,125.375 983.9063,125.375 Q984.6094,125.375 985.25,125.5313 Q985.9063,125.6875 986.4688,125.9844 L986.4688,128.7031 Q985.8438,128.125 985.25,127.8594 Q984.6563,127.5781 984.0313,127.5781 Q982.6875,127.5781 982,128.6563 Q981.3125,129.7188 981.3125,131.8125 Q981.3125,133.9063 982,134.9844 Q982.6875,136.0469 984.0313,136.0469 Q984.6563,136.0469 985.25,135.7813 Q985.8438,135.5 986.4688,134.9219 L986.4688,137.6406 Z " fill="#000000"/><text fill="#000000" font-family="sans-serif" font-size="14" lengthAdjust="spacing" textLength="181.9385" x="997.5" y="136.8467">SemanticSearchResponse</text></g><!--class SemanticSearchResultList--><g class="entity" data-qualified-name="SemanticSearchResultList" data-source-line="94" id="ent0011"><rect fill="#F1F1F1" height="32" rx="2.5" ry="2.5" style="stroke:#181818;stroke-width:0.5;" width="214.4307" x="968.5" y="7"/><ellipse cx="983.5" cy="23" fill="#ADD1B2" rx="11" ry="11" style="stroke:#181818;stroke-width:1;"/><path d="M986.4688,28.6406 Q985.8906,28.9375 985.25,29.0781 Q984.6094,29.2344 983.9063,29.2344 Q981.4063,29.2344 980.0781,27.5938 Q978.7656,25.9375 978.7656,22.8125 Q978.7656,19.6875 980.0781,18.0313 Q981.4063,16.375 983.9063,16.375 Q984.6094,16.375 985.25,16.5313 Q985.9063,16.6875 986.4688,16.9844 L986.4688,19.7031 Q985.8438,19.125 985.25,18.8594 Q984.6563,18.5781 984.0313,18.5781 Q982.6875,18.5781 982,19.6563 Q981.3125,20.7188 981.3125,22.8125 Q981.3125,24.9063 982,25.9844 Q982.6875,27.0469 984.0313,27.0469 Q984.6563,27.0469 985.25,26.7813 Q985.8438,26.5 986.4688,25.9219 L986.4688,28.6406 Z " fill="#000000"/><text fill="#000000" font-family="sans-serif" font-size="14" lengthAdjust="spacing" textLength="182.4307" x="997.5" y="27.8467">SemanticSearchResultList</text></g><!--class SemanticSearchService--><g class="entity" data-qualified-name="SemanticSearchService" data-source-line="112" id="ent0012"><rect fill="#F1F1F1" height="32" rx="2.5" ry="2.5" style="stroke:#181818;stroke-width:0.5;" width="197.8125" x="726.5" y="116"/><ellipse cx="741.5" cy="132" fill="#ADD1B2" rx="11" ry="11" style="stroke:#181818;stroke-width:1;"/><path d="M744.4688,137.6406 Q743.8906,137.9375 743.25,138.0781 Q742.6094,138.2344 741.9063,138.2344 Q739.4063,138.2344 738.0781,136.5938 Q736.7656,134.9375 736.7656,131.8125 Q736.7656,128.6875 738.0781,127.0313 Q739.4063,125.375 741.9063,125.375 Q742.6094,125.375 743.25,125.5313 Q743.9063,125.6875 744.4688,125.9844 L744.4688,128.7031 Q743.8438,128.125 743.25,127.8594 Q742.6563,127.5781 742.0313,127.5781 Q740.6875,127.5781 740,128.6563 Q739.3125,129.7188 739.3125,131.8125 Q739.3125,133.9063 740,134.9844 Q740.6875,136.0469 742.0313,136.0469 Q742.6563,136.0469 743.25,135.7813 Q743.8438,135.5 744.4688,134.9219 L744.4688,137.6406 Z " fill="#000000"/><text fill="#000000" font-family="sans-serif" font-size="14" lengthAdjust="spacing" textLength="165.8125" x="755.5" y="136.8467">SemanticSearchService</text></g><!--class UpdateWorkItemRequest--><g class="entity" data-qualified-name="UpdateWorkItemRequest" data-source-line="126" id="ent0013"><rect fill="#F1F1F1" height="32" rx="2.5" ry="2.5" style="stroke:#181818;stroke-width:0.5;" width="208.3398" x="483.5" y="116"/><ellipse cx="498.5" cy="132" fill="#ADD1B2" rx="11" ry="11" style="stroke:#181818;stroke-width:1;"/><path d="M501.4688,137.6406 Q500.8906,137.9375 500.25,138.0781 Q499.6094,138.2344 498.9063,138.2344 Q496.4063,138.2344 495.0781,136.5938 Q493.7656,134.9375 493.7656,131.8125 Q493.7656,128.6875 495.0781,127.0313 Q496.4063,125.375 498.9063,125.375 Q499.6094,125.375 500.25,125.5313 Q500.9063,125.6875 501.4688,125.9844 L501.4688,128.7031 Q500.8438,128.125 500.25,127.8594 Q499.6563,127.5781 499.0313,127.5781 Q497.6875,127.5781 497,128.6563 Q496.3125,129.7188 496.3125,131.8125 Q496.3125,133.9063 497,134.9844 Q497.6875,136.0469 499.0313,136.0469 Q499.6563,136.0469 500.25,135.7813 Q500.8438,135.5 501.4688,134.9219 L501.4688,137.6406 Z " fill="#000000"/><text fill="#000000" font-family="sans-serif" font-size="14" lengthAdjust="spacing" textLength="176.3398" x="512.5" y="136.8467">UpdateWorkItemRequest</text></g><!--class WorkItem--><g class="entity" data-qualified-name="WorkItem" data-source-line="142" id="ent0014"><rect fill="#F1F1F1" height="32" rx="2.5" ry="2.5" style="stroke:#181818;stroke-width:0.5;" width="100.1406" x="81.5" y="225"/><ellipse cx="96.5" cy="241" fill="#ADD1B2" rx="11" ry="11" style="stroke:#181818;stroke-width:1;"/><path d="M99.4688,246.6406 Q98.8906,246.9375 98.25,247.0781 Q97.6094,247.2344 96.9063,247.2344 Q94.4063,247.2344 93.0781,245.5938 Q91.7656,243.9375 91.7656,240.8125 Q91.7656,237.6875 93.0781,236.0313 Q94.4063,234.375 96.9063,234.375 Q97.6094,234.375 98.25,234.5313 Q98.9063,234.6875 99.4688,234.9844 L99.4688,237.7031 Q98.8438,237.125 98.25,236.8594 Q97.6563,236.5781 97.0313,236.5781 Q95.6875,236.5781 95,237.6563 Q94.3125,238.7188 94.3125,240.8125 Q94.3125,242.9063 95,243.9844 Q95.6875,245.0469 97.0313,245.0469 Q97.6563,245.0469 98.25,244.7813 Q98.8438,244.5 99.4688,243.9219 L99.4688,246.6406 Z " fill="#000000"/><text fill="#000000" font-family="sans-serif" font-size="14" lengthAdjust="spacing" textLength="68.1406" x="110.5" y="245.8467">WorkItem</text></g><!--class WorkItemAssignmentDto--><g class="entity" data-qualified-name="WorkItemAssignmentDto" data-source-line="163" id="ent0015"><rect fill="#F1F1F1" height="32" rx="2.5" ry="2.5" style="stroke:#181818;stroke-width:0.5;" width="207.4033" x="972" y="334"/><ellipse cx="987" cy="350" fill="#ADD1B2" rx="11" ry="11" style="stroke:#181818;stroke-width:1;"/><path d="M989.9688,355.6406 Q989.3906,355.9375 988.75,356.0781 Q988.1094,356.2344 987.4063,356.2344 Q984.9063,356.2344 983.5781,354.5938 Q982.2656,352.9375 982.2656,349.8125 Q982.2656,346.6875 983.5781,345.0313 Q984.9063,343.375 987.4063,343.375 Q988.1094,343.375 988.75,343.5313 Q989.4063,343.6875 989.9688,343.9844 L989.9688,346.7031 Q989.3438,346.125 988.75,345.8594 Q988.1563,345.5781 987.5313,345.5781 Q986.1875,345.5781 985.5,346.6563 Q984.8125,347.7188 984.8125,349.8125 Q984.8125,351.9063 985.5,352.9844 Q986.1875,354.0469 987.5313,354.0469 Q988.1563,354.0469 988.75,353.7813 Q989.3438,353.5 989.9688,352.9219 L989.9688,355.6406 Z " fill="#000000"/><text fill="#000000" font-family="sans-serif" font-size="14" lengthAdjust="spacing" textLength="175.4033" x="1001" y="354.8467">WorkItemAssignmentDto</text></g><!--class WorkItemMapper--><g class="entity" data-qualified-name="WorkItemMapper" data-source-line="180" id="ent0016"><rect fill="#F1F1F1" height="32" rx="2.5" ry="2.5" style="stroke:#181818;stroke-width:0.5;" width="152.9414" x="217" y="225"/><ellipse cx="232" cy="241" fill="#ADD1B2" rx="11" ry="11" style="stroke:#181818;stroke-width:1;"/><path d="M234.9688,246.6406 Q234.3906,246.9375 233.75,247.0781 Q233.1094,247.2344 232.4063,247.2344 Q229.9063,247.2344 228.5781,245.5938 Q227.2656,243.9375 227.2656,240.8125 Q227.2656,237.6875 228.5781,236.0313 Q229.9063,234.375 232.4063,234.375 Q233.1094,234.375 233.75,234.5313 Q234.4063,234.6875 234.9688,234.9844 L234.9688,237.7031 Q234.3438,237.125 233.75,236.8594 Q233.1563,236.5781 232.5313,236.5781 Q231.1875,236.5781 230.5,237.6563 Q229.8125,238.7188 229.8125,240.8125 Q229.8125,242.9063 230.5,243.9844 Q231.1875,245.0469 232.5313,245.0469 Q233.1563,245.0469 233.75,244.7813 Q234.3438,244.5 234.9688,243.9219 L234.9688,246.6406 Z " fill="#000000"/><text fill="#000000" font-family="sans-serif" font-size="14" lengthAdjust="spacing" textLength="120.9414" x="246" y="245.8467">WorkItemMapper</text></g><!--class WorkItemRepository--><g class="entity" data-qualified-name="WorkItemRepository" data-source-line="190" id="ent0017"><rect fill="#F1F1F1" height="32" rx="2.5" ry="2.5" style="stroke:#181818;stroke-width:0.5;" width="175.2129" x="759" y="225"/><ellipse cx="774" cy="241" fill="#B4A7E5" rx="11" ry="11" style="stroke:#181818;stroke-width:1;"/><path d="M769.9219,236.7656 L769.9219,234.6094 L777.3125,234.6094 L777.3125,236.7656 L774.8438,236.7656 L774.8438,244.8438 L777.3125,244.8438 L777.3125,247 L769.9219,247 L769.9219,244.8438 L772.3906,244.8438 L772.3906,236.7656 L769.9219,236.7656 Z " fill="#000000"/><text fill="#000000" font-family="sans-serif" font-size="14" font-style="italic" lengthAdjust="spacing" textLength="143.2129" x="788" y="245.8467">WorkItemRepository</text></g><!--class WorkItemResponse--><g class="entity" data-qualified-name="WorkItemResponse" data-source-line="198" id="ent0018"><rect fill="#F1F1F1" height="32" rx="2.5" ry="2.5" style="stroke:#181818;stroke-width:0.5;" width="168.0078" x="991.5" y="225"/><ellipse cx="1006.5" cy="241" fill="#ADD1B2" rx="11" ry="11" style="stroke:#181818;stroke-width:1;"/><path d="M1009.4688,246.6406 Q1008.8906,246.9375 1008.25,247.0781 Q1007.6094,247.2344 1006.9063,247.2344 Q1004.4063,247.2344 1003.0781,245.5938 Q1001.7656,243.9375 1001.7656,240.8125 Q1001.7656,237.6875 1003.0781,236.0313 Q1004.4063,234.375 1006.9063,234.375 Q1007.6094,234.375 1008.25,234.5313 Q1008.9063,234.6875 1009.4688,234.9844 L1009.4688,237.7031 Q1008.8438,237.125 1008.25,236.8594 Q1007.6563,236.5781 1007.0313,236.5781 Q1005.6875,236.5781 1005,237.6563 Q1004.3125,238.7188 1004.3125,240.8125 Q1004.3125,242.9063 1005,243.9844 Q1005.6875,245.0469 1007.0313,245.0469 Q1007.6563,245.0469 1008.25,244.7813 Q1008.8438,244.5 1009.4688,243.9219 L1009.4688,246.6406 Z " fill="#000000"/><text fill="#000000" font-family="sans-serif" font-size="14" lengthAdjust="spacing" textLength="136.0078" x="1020.5" y="245.8467">WorkItemResponse</text></g><!--reverse link EmbeddingService to AlibabaEmbeddingConfig--><g class="link" data-entity-1="ent0007" data-entity-2="ent0002" data-link-type="composition" data-source-line="238" id="lnk19"><path codeLine="238" d="M642.5,269.33 C642.5,289.67 642.5,313.37 642.5,333.7" fill="none" id="EmbeddingService-backto-AlibabaEmbeddingConfig" style="stroke:#181818;stroke-width:1;"/><polygon fill="#181818" points="642.5,257.33,638.5,263.33,642.5,269.33,646.5,263.33,642.5,257.33" style="stroke:#181818;stroke-width:1;stroke-linejoin:miter;stroke-miterlimit:10;"/><text fill="#000000" font-family="sans-serif" font-size="13" lengthAdjust="spacing" textLength="39.7808" x="643.5" y="300.0669">config</text></g><!--reverse link SemanticSearchController to SemanticSearchService--><g class="link" data-entity-1="ent0008" data-entity-2="ent0012" data-link-type="composition" data-source-line="239" id="lnk20"><path codeLine="239" d="M825.5,51.33 C825.5,71.67 825.5,95.37 825.5,115.7" fill="none" id="SemanticSearchController-backto-SemanticSearchService" style="stroke:#181818;stroke-width:1;"/><polygon fill="#181818" points="825.5,39.33,821.5,45.33,825.5,51.33,829.5,45.33,825.5,39.33" style="stroke:#181818;stroke-width:1;stroke-linejoin:miter;stroke-miterlimit:10;"/><text fill="#000000" font-family="sans-serif" font-size="13" lengthAdjust="spacing" textLength="91.5142" x="826.5" y="82.0669">searchService</text></g><!--reverse link SemanticSearchResponse to WorkItemResponse--><g class="link" data-entity-1="ent0010" data-entity-2="ent0018" data-link-type="composition" data-source-line="240" id="lnk21"><path codeLine="240" d="M1075.5,160.33 C1075.5,180.67 1075.5,204.37 1075.5,224.7" fill="none" id="SemanticSearchResponse-backto-WorkItemResponse" style="stroke:#181818;stroke-width:1;"/><polygon fill="#181818" points="1075.5,148.33,1071.5,154.33,1075.5,160.33,1079.5,154.33,1075.5,148.33" style="stroke:#181818;stroke-width:1;stroke-linejoin:miter;stroke-miterlimit:10;"/><text fill="#000000" font-family="sans-serif" font-size="13" lengthAdjust="spacing" textLength="61.0518" x="1076.5" y="191.0669">workItem</text></g><!--reverse link SemanticSearchResultList to SemanticSearchResponse--><g class="link" data-entity-1="ent0011" data-entity-2="ent0010" data-link-type="aggregation" data-source-line="241" id="lnk22"><path codeLine="241" d="M1075.5,51.33 C1075.5,71.67 1075.5,95.37 1075.5,115.7" fill="none" id="SemanticSearchResultList-backto-SemanticSearchResponse" style="stroke:#181818;stroke-width:1;"/><polygon fill="none" points="1075.5,39.33,1071.5,45.33,1075.5,51.33,1079.5,45.33,1075.5,39.33" style="stroke:#181818;stroke-width:1;stroke-linejoin:miter;stroke-miterlimit:10;"/><text fill="#000000" font-family="sans-serif" font-size="13" lengthAdjust="spacing" textLength="43.8369" x="1076.5" y="82.0669">results</text><text fill="#000000" font-family="sans-serif" font-size="13" lengthAdjust="spacing" textLength="8.271" x="1066.1996" y="59.0139">1</text><text fill="#000000" font-family="sans-serif" font-size="13" lengthAdjust="spacing" textLength="23.0356" x="1048.7067" y="104.9051">0..*</text></g><!--reverse link SemanticSearchService to EmbeddingService--><g class="link" data-entity-1="ent0012" data-entity-2="ent0007" data-link-type="composition" data-source-line="242" id="lnk23"><path codeLine="242" d="M758.7754,151.8433 C737.2954,159.0633 724.49,165.17 704.5,178 C684.52,190.83 665.87,211.05 654.34,224.88" fill="none" id="SemanticSearchService-backto-EmbeddingService" style="stroke:#181818;stroke-width:1;"/><polygon fill="#181818" points="770.15,148.02,763.1882,146.1401,758.7754,151.8433,765.7371,153.7232,770.15,148.02" style="stroke:#181818;stroke-width:1;stroke-linejoin:miter;stroke-miterlimit:10;"/><text fill="#000000" font-family="sans-serif" font-size="13" lengthAdjust="spacing" textLength="121.564" x="705.5" y="191.0669">embeddingService</text></g><!--reverse link SemanticSearchService to WorkItemRepository--><g class="link" data-entity-1="ent0012" data-entity-2="ent0017" data-link-type="composition" data-source-line="243" id="lnk24"><path codeLine="243" d="M830.82,160.1056 C834.81,180.4456 839.51,204.37 843.5,224.7" fill="none" id="SemanticSearchService-backto-WorkItemRepository" style="stroke:#181818;stroke-width:1;"/><polygon fill="#181818" points="828.51,148.33,825.7398,154.9878,830.82,160.1056,833.5902,153.4478,828.51,148.33" style="stroke:#181818;stroke-width:1;stroke-linejoin:miter;stroke-miterlimit:10;"/><text fill="#000000" font-family="sans-serif" font-size="13" lengthAdjust="spacing" textLength="130.7617" x="838.5" y="191.0669">workItemRepository</text></g><!--reverse link WorkItemAssignmentDto to AssignedUserDto--><g class="link" data-entity-1="ent0015" data-entity-2="ent0003" data-link-type="composition" data-source-line="244" id="lnk25"><path codeLine="244" d="M1034.1852,372.4196 C1022.6152,379.7296 1020.91,383.31 1014.5,396 C1004.97,414.87 1024.11,431.64 1043.41,442.97" fill="none" id="WorkItemAssignmentDto-backto-AssignedUserDto" style="stroke:#181818;stroke-width:1;"/><polygon fill="#181818" points="1044.33,366.01,1037.1211,365.8332,1034.1852,372.4196,1041.3941,372.5964,1044.33,366.01" style="stroke:#181818;stroke-width:1;stroke-linejoin:miter;stroke-miterlimit:10;"/><text fill="#000000" font-family="sans-serif" font-size="13" lengthAdjust="spacing" textLength="74.4771" x="1015.5" y="409.0669">assignedBy</text></g><!--reverse link WorkItemAssignmentDto to AssignedUserDto--><g class="link" data-entity-1="ent0015" data-entity-2="ent0003" data-link-type="composition" data-source-line="245" id="lnk26"><path codeLine="245" d="M1089.0137,377.1285 C1093.1237,385.6085 1092.41,385.69 1094.5,396 C1097.81,412.33 1090.94,430.5 1084.56,442.93" fill="none" id="WorkItemAssignmentDto-backto-AssignedUserDto-1" style="stroke:#181818;stroke-width:1;"/><polygon fill="#181818" points="1083.78,366.33,1082.7974,373.4738,1089.0137,377.1285,1089.9964,369.9847,1083.78,366.33" style="stroke:#181818;stroke-width:1;stroke-linejoin:miter;stroke-miterlimit:10;"/><text fill="#000000" font-family="sans-serif" font-size="13" lengthAdjust="spacing" textLength="28.355" x="1095.5" y="409.0669">user</text></g><!--reverse link WorkItemResponse to WorkItemAssignmentDto--><g class="link" data-entity-1="ent0018" data-entity-2="ent0015" data-link-type="aggregation" data-source-line="246" id="lnk27"><path codeLine="246" d="M1075.5,269.33 C1075.5,289.67 1075.5,313.37 1075.5,333.7" fill="none" id="WorkItemResponse-backto-WorkItemAssignmentDto" style="stroke:#181818;stroke-width:1;"/><polygon fill="none" points="1075.5,257.33,1071.5,263.33,1075.5,269.33,1079.5,263.33,1075.5,257.33" style="stroke:#181818;stroke-width:1;stroke-linejoin:miter;stroke-miterlimit:10;"/><text fill="#000000" font-family="sans-serif" font-size="13" lengthAdjust="spacing" textLength="64.3843" x="1076.5" y="300.0669">assignees</text><text fill="#000000" font-family="sans-serif" font-size="13" lengthAdjust="spacing" textLength="8.271" x="1066.2669" y="277.0139">1</text><text fill="#000000" font-family="sans-serif" font-size="13" lengthAdjust="spacing" textLength="23.0356" x="1048.6297" y="322.9051">0..*</text></g><?plantuml-src xLbBRzms43vNluBmoOsjeBtkpQ_0YyPruBNHGr4KN6bspPeILP9ol33otpEaj28baLh5HNhAQRMQuJm_pWofZ5Ebo1bRWNnc6JoKz9aoJjSShbuog3GJ9NbDlYH9aZMSdAtfcbuLQyXpLculHBbXMsJvwNN3WETVI4ehzXlio8Aij4IEFkL1yX2b43dq20NeHu6K4wOQ5RM4d1p_Z3nh8JZGqZTAAROj8NzG82-rw5a31VeJKbdI0aBlDN3OIbeOOSiyn56FA9srZJPhPe3uRqsv8iT48Fbs_GzaclWEUQoFL3rUO4mQKQpKFj5Q7j4ni3x69PftCNezNksYVI61QlX3oAUbXk8ElGAb_PYVq2OViCmL2lZ8bFQ8cIWg3XhoCst2iDaeq9Sey9uLuBDPBVdvBfg7annK9bc3qH2v1YFNM20ooispHqMRMM4qtB2orc0CNPOQjY1zfXSDigJy8okVGYegoOHase1z7uzFxIkFIo5RgSC-A4rrhK8KJRV1-6ccUGYu9v_HWljT1Q6SNG9KAu2dMTkrWq7Uhjhd-9WCTh25xxNMrIUXUX1zn7SNd46f6n1TSA70L9NhZX2mhYr2FVCyIM4nVLPZICIcBPGW3T0mg-XA9H68kk_AA6vTdGkOzcfonp9KVB-ykRfzkFzxTNLn-_lbgjknGHz2fZjHN6mjOBSz8AR2LeiRMbKWk-BH_FLSJDSrutcRhNEHxz1DRRmDEHc8JETjSDs62wh__ClNLr6ftAexK9Ke5TOc8jj7QqHGYeln2ejcYTwlWCeCgrwffU0S_NoT4Q3E1mcipE6bWTlUaYkKQxTYnwQi4cjXW-d5GFyUwm4nCPD39R2WBxYwvZfSM721t8K0DvJSHjJV4H9B_3CjCrXbGfhTdeiQjyJtw3G3LPPbhErGD_dSbiQ6xXf7uzkKynW_K_twzOgTxKUKdaTx-ePolgRPqmqeHRV15Z-8ljVxXQRSvMqG3L_pSIISyoFlC7soDncNzKqZfsOdjTROI9oIOk1NiwSZaVDD6mOcagr9G3JcHLRkJRNaWNRFMrLd6PemmzcvdXq2O2-jdLint4sM-aXzViOy2xcq5GZRb2YpMaeiyTSOJ2pJlZ6sHYzThNeMB1_LyCOIWxIsMp6pVzpc2HVoD1EAbR1Y1QBKpYNOiLtDnG2llN_XpMohQASch7XeCdQXZP05ZX6urVCF4sZkbKLCWiqvLTu0DpVfUwLzrbawvy9AGY6UuGFE2MswoBwIURDSA22ko_n7Onn47whyVnYwVqpKioVgRaECSr3WnhS6mDlFFJyEHuTIEOumscn6DSaWH8lakBORwq2y0_l-6s5orY5ZU47Hxjjf2rA7hF2TXAFVYQ2ZQLrEQt9ZZcEp3Uemvtax4WpkOSQihVsHDZtmuJlVeXoy0odd1yBSbuH3C4P2UuXx3Gz7IEIxfjWhh-7u7VZKExk4sqAW9VdJ9ZQqvWx7dUkTnF3jZZ-uXwLgqOSuJXxTVs-nO-h9xAsDAV3Ebs1FPCEvP7IqY0Ywfzl6H2mZtZ9yRSNWxwG4F2RiRngFYKqzvhsgp3iImm223-SLYcEbCxB2QGsdnjq02tIjjAIPDgd2QUoCyyX47M8ageBCu1b_s8Pbr3Q0ESlFTsPd4ZOORMvj2w5yUkdzuDgH3Ev8dGNZ3H4yvCxhbkcSRfaUxfRfTBTC9xjbEgTRfWUwPUfron5jeaUcqHwPjZsoF-oaiKQOpcc4wMGZJCUDSDmi87m-x8r71wgjI_eynYxnaKhl9p_6qWAWCTt3m5lQqWWlLgg3Z6FqCVEMute7giZY3bWnUWEksB7Q02oOp0PaR_tuq07nG7ezC4xSF5b03hza9CdePlTTcfBOvwq5oUn34hshjAl3zmWBelp_IUIApqeOrSH5Dm8aqTkner-FYC3LHx-yV__kYCJk41VxwvKaRASrO1IM1O71gwdbWURcF70la_1OtAHWy35lGToO-MthJ0zAHX4THYiiijCAAaaU6UulM-HKyzm0J2LV0G00?></g></svg>